# xmcd
#
# Track frame offsets:
#	150
#	23022
#	46825
#	69722
#	91180
#	124967
#	152537
#
# Disc length: 2415 seconds
#
# Revision: 1
# Processed by: cddbd v1.4PL0 Copyright (c) Steve Scherf et al.
# Submitted via: audiograbber 1.82.01
#
DISCID=4f096d07
DTITLE=Najwa Karam - Chames El Gheniyye
DYEAR=1900
DGENRE=
TTITLE0=Chames El Gheniyye
TTITLE1=Hab El Hawa
TTITLE2=Wasa3 Ya dar
TTITLE3=Ya Rakeb 3a El 3bayye
TTITLE4=Habibi Ghab
TTITLE5=Bala Bala
TTITLE6=Kholes El Sahar
EXTD=
EXTT0=
EXTT1=
EXTT2=
EXTT3=
EXTT4=
EXTT5=
EXTT6=
PLAYORDER=
